<svg preserveAspectRatio="none" overflow="visible" style="display: block;" width="32" height="32" viewBox="0 0 32 32" fill="none" xmlns="http://www.w3.org/2000/svg">
<g id="&#228;&#184;&#139;&#228;&#184;&#128;&#228;&#184;&#170;">
<path id="Vector" d="M27.66 15.293L19.6358 7.26881C19.2453 6.87828 18.6121 6.87828 18.2216 7.26881C17.8311 7.65934 17.8311 8.2925 18.2216 8.68303L24.5748 15.0362H4.93855C4.40617 15.0362 3.97461 15.4677 3.97461 16.0001C3.97461 16.5325 4.4062 16.964 4.93855 16.964H24.5748L18.2216 23.3172C17.8311 23.7077 17.8311 24.3409 18.2216 24.7314C18.4169 24.9267 18.6728 25.0243 18.9287 25.0243C19.1846 25.0243 19.4406 24.9267 19.6358 24.7314L27.66 16.7072C27.7529 16.6143 27.8266 16.5041 27.8768 16.3828C27.9271 16.2614 27.9529 16.1314 27.9529 16.0001C27.9529 15.8688 27.9271 15.7387 27.8768 15.6174C27.8266 15.4961 27.7529 15.3859 27.66 15.293Z" fill="#404040"/>
</g>
</svg>
