<svg width="1920" height="1080" viewBox="0 0 1920 1080" fill="none" xmlns="http://www.w3.org/2000/svg">
<g clip-path="url(#clip0_97_1828)">
<rect width="1920" height="1080" fill="url(#paint0_linear_97_1828)"/>
<g filter="url(#filter0_f_97_1828)">
<path d="M214.26 242.267C82.7219 224.343 -97.4059 287.455 -135 335.467V968.28C18.2243 999.708 319.547 1038.12 888.584 934.135C1457.62 830.15 1832.8 924.565 2054 968.28V304.405C2054 304.405 1899.64 214 1636.48 214C1343.13 214 1153.41 352.54 775.76 352.54C488.842 352.54 446.72 273.944 214.26 242.267Z" fill="url(#paint1_linear_97_1828)"/>
<path d="M214.26 242.267C82.7219 224.343 -97.4059 287.455 -135 335.467V968.28C18.2243 999.708 319.547 1038.12 888.584 934.135C1457.62 830.15 1832.8 924.565 2054 968.28V304.405C2054 304.405 1899.64 214 1636.48 214C1343.13 214 1153.41 352.54 775.76 352.54C488.842 352.54 446.72 273.944 214.26 242.267Z" fill="url(#paint2_linear_97_1828)" fill-opacity="0.3"/>
</g>
</g>
<defs>
<filter id="filter0_f_97_1828" x="-335" y="14" width="2589" height="1188" filterUnits="userSpaceOnUse" color-interpolation-filters="sRGB">
<feFlood flood-opacity="0" result="BackgroundImageFix"/>
<feBlend mode="normal" in="SourceGraphic" in2="BackgroundImageFix" result="shape"/>
<feGaussianBlur stdDeviation="100" result="effect1_foregroundBlur_97_1828"/>
</filter>
<linearGradient id="paint0_linear_97_1828" x1="960" y1="0" x2="960" y2="1080" gradientUnits="userSpaceOnUse">
<stop offset="0.501736" stop-color="#04050E"/>
<stop offset="0.696082" stop-color="white" stop-opacity="0.9"/>
</linearGradient>
<linearGradient id="paint1_linear_97_1828" x1="1014.39" y1="174.326" x2="947.771" y2="890.164" gradientUnits="userSpaceOnUse">
<stop offset="0.201923" stop-color="#45C1FF"/>
<stop offset="0.399038" stop-color="#5DAEFF"/>
<stop offset="1" stop-color="white"/>
</linearGradient>
<linearGradient id="paint2_linear_97_1828" x1="433.695" y1="575.367" x2="536.877" y2="826.327" gradientUnits="userSpaceOnUse">
<stop stop-color="#5D89FF"/>
<stop offset="1" stop-color="white"/>
</linearGradient>
<clipPath id="clip0_97_1828">
<rect width="1920" height="1080" fill="white"/>
</clipPath>
</defs>
</svg>
